<svg xmlns="http://www.w3.org/2000/svg" viewBox="0 0 114.14 30.86"><g fill="#CCC"><path class="logo" d="M20,2.45a1.8,1.8,0,0,0-1.53.9L15.33,8,12.28,3.35a2,2,0,0,0-1.6-.9H0L7.14,12.71a3.83,3.83,0,0,0,2.22,1.6,3,3,0,0,1,2.85-2.22,3,3,0,0,1,2.92,2.36H20.4a4,4,0,0,0,3.05-1.74L30.66,2.45Zm2.82,9.89a3.17,3.17,0,0,1-2.58,1.42,2.05,2.05,0,0,1-1.56-.68,4,4,0,0,0-.48-.61L15.74,8.74,18.86,4a1.19,1.19,0,0,1,1-.54H29Z"></path><path class="logo" d="M23.45,17.18a4,4,0,0,0-3.06-1.73h-5.2a3,3,0,0,1-2.91,2.49,3,3,0,0,1-2.92-2.29,3.72,3.72,0,0,0-2.22,1.6L0,27.45H10.68a2.05,2.05,0,0,0,1.6-.9l3.05-4.65,3,4.65a1.93,1.93,0,0,0,1.6.9H30.66Zm-4.59,8.66-3.12-4.75,2.44-3.74a4.06,4.06,0,0,1,.68-.81A1.85,1.85,0,0,1,20,16.07a3.13,3.13,0,0,1,2.77,1.42l6.25,9H19.88A1.46,1.46,0,0,1,18.86,25.84Z"></path><path class="logo" d="M12.35,16.45a1.7,1.7,0,1,0-1.7-1.7,1.68,1.68,0,0,0,1.66,1.7h0"></path></g></svg>